<?xml version="1.0" encoding="utf-8"?>
<!-- Generator: Adobe Illustrator 24.0.3, SVG Export Plug-In . SVG Version: 6.00 Build 0)  -->
<svg version="1.1" id="Livello_1" xmlns="http://www.w3.org/2000/svg" xmlns:xlink="http://www.w3.org/1999/xlink" x="0px" y="0px"
	 viewBox="0 0 500 500" style="enable-background:new 0 0 500 500;" xml:space="preserve">
<style type="text/css">
	.st0{fill:#FA6620;}
	.st1{fill:#662E9B;}
	.st2{fill:#3DBBCA;}
	.st3{fill:#F9C80C;}
	.st4{fill:#E93445;}
</style>
<path class="st0" d="M251.5,236c0,6.1,0.6,12.1,1.9,17.9c-4.9,0.7-9.9,1-15.1,1c-54.9,0-99.5-41.4-99.5-92.5
	c0-51.1,44.5-92.5,99.5-92.5c48.3,0,88.6,32.1,97.6,74.6C288.1,151.3,251.5,189.7,251.5,236z"/>
<ellipse id="viola_1_" class="st1" cx="149.7" cy="236.8" rx="99.5" ry="92.5"/>
<ellipse id="verde_1_" class="st2" cx="197.8" cy="343.2" rx="99.5" ry="92.5"/>
<ellipse id="giallo_1_" class="st3" cx="307.2" cy="337" rx="99.5" ry="92.5"/>
<path class="st0" d="M337.8,162.5c0,46.3-36.6,84.7-84.4,91.4c-1.2-5.8-1.9-11.8-1.9-17.9c0-46.3,36.6-84.7,84.4-91.4
	C337.1,150.4,337.8,156.4,337.8,162.5z"/>
<path class="st4" d="M450.4,236c0,51.1-44.5,92.5-99.5,92.5c-48.3,0-88.6-32.1-97.6-74.6c47.8-6.8,84.4-45.1,84.4-91.4
	c0-6.1-0.6-12.1-1.9-17.9c4.9-0.7,9.9-1,15.1-1C405.9,143.5,450.4,185,450.4,236z"/>
</svg>
